<svg id="visual" viewBox="0 0 900 600" width="900" height="600" xmlns="http://www.w3.org/2000/svg" xmlns:xlink="http://www.w3.org/1999/xlink" version="1.1"><rect x="0" y="0" width="900" height="600" fill="#ffffff"></rect><path d="M0 419L16.7 425.5C33.3 432 66.7 445 100 452.2C133.3 459.3 166.7 460.7 200 459C233.3 457.3 266.7 452.7 300 448.2C333.3 443.7 366.7 439.3 400 431.7C433.3 424 466.7 413 500 409.7C533.3 406.3 566.7 410.7 600 414.7C633.3 418.7 666.7 422.3 700 424.3C733.3 426.3 766.7 426.7 800 422.5C833.3 418.3 866.7 409.7 883.3 405.3L900 401L900 601L883.3 601C866.7 601 833.3 601 800 601C766.7 601 733.3 601 700 601C666.7 601 633.3 601 600 601C566.7 601 533.3 601 500 601C466.7 601 433.3 601 400 601C366.7 601 333.3 601 300 601C266.7 601 233.3 601 200 601C166.7 601 133.3 601 100 601C66.7 601 33.3 601 16.7 601L0 601Z" fill="#600414"></path><path d="M0 472L16.7 473.5C33.3 475 66.7 478 100 480.2C133.3 482.3 166.7 483.7 200 487.8C233.3 492 266.7 499 300 497.2C333.3 495.3 366.7 484.7 400 482.5C433.3 480.3 466.7 486.7 500 492.5C533.3 498.3 566.7 503.7 600 494.3C633.3 485 666.7 461 700 448.2C733.3 435.3 766.7 433.7 800 443.5C833.3 453.3 866.7 474.7 883.3 485.3L900 496L900 601L883.3 601C866.7 601 833.3 601 800 601C766.7 601 733.3 601 700 601C666.7 601 633.3 601 600 601C566.7 601 533.3 601 500 601C466.7 601 433.3 601 400 601C366.7 601 333.3 601 300 601C266.7 601 233.3 601 200 601C166.7 601 133.3 601 100 601C66.7 601 33.3 601 16.7 601L0 601Z" fill="#8f2f1e"></path><path d="M0 502L16.7 503.8C33.3 505.7 66.7 509.3 100 513.2C133.3 517 166.7 521 200 513.7C233.3 506.3 266.7 487.7 300 477.5C333.3 467.3 366.7 465.7 400 471.7C433.3 477.7 466.7 491.3 500 498.5C533.3 505.7 566.7 506.3 600 511.3C633.3 516.3 666.7 525.7 700 529.8C733.3 534 766.7 533 800 523.3C833.3 513.7 866.7 495.3 883.3 486.2L900 477L900 601L883.3 601C866.7 601 833.3 601 800 601C766.7 601 733.3 601 700 601C666.7 601 633.3 601 600 601C566.7 601 533.3 601 500 601C466.7 601 433.3 601 400 601C366.7 601 333.3 601 300 601C266.7 601 233.3 601 200 601C166.7 601 133.3 601 100 601C66.7 601 33.3 601 16.7 601L0 601Z" fill="#bb5a23"></path><path d="M0 525L16.7 529.7C33.3 534.3 66.7 543.7 100 543C133.3 542.3 166.7 531.7 200 528.8C233.3 526 266.7 531 300 537.2C333.3 543.3 366.7 550.7 400 545.5C433.3 540.3 466.7 522.7 500 522.3C533.3 522 566.7 539 600 544.5C633.3 550 666.7 544 700 536.7C733.3 529.3 766.7 520.7 800 517.7C833.3 514.7 866.7 517.3 883.3 518.7L900 520L900 601L883.3 601C866.7 601 833.3 601 800 601C766.7 601 733.3 601 700 601C666.7 601 633.3 601 600 601C566.7 601 533.3 601 500 601C466.7 601 433.3 601 400 601C366.7 601 333.3 601 300 601C266.7 601 233.3 601 200 601C166.7 601 133.3 601 100 601C66.7 601 33.3 601 16.7 601L0 601Z" fill="#e18926"></path><path d="M0 547L16.7 546.3C33.3 545.7 66.7 544.3 100 544.3C133.3 544.3 166.7 545.7 200 551.7C233.3 557.7 266.7 568.3 300 568.7C333.3 569 366.7 559 400 555.3C433.3 551.7 466.7 554.3 500 553.8C533.3 553.3 566.7 549.7 600 552C633.3 554.3 666.7 562.7 700 562.7C733.3 562.7 766.7 554.3 800 549C833.3 543.7 866.7 541.3 883.3 540.2L900 539L900 601L883.3 601C866.7 601 833.3 601 800 601C766.7 601 733.3 601 700 601C666.7 601 633.3 601 600 601C566.7 601 533.3 601 500 601C466.7 601 433.3 601 400 601C366.7 601 333.3 601 300 601C266.7 601 233.3 601 200 601C166.7 601 133.3 601 100 601C66.7 601 33.3 601 16.7 601L0 601Z" fill="#ffbc2c"></path></svg>