<svg id="visual" viewBox="0 0 900 600" width="900" height="600" xmlns="http://www.w3.org/2000/svg" xmlns:xlink="http://www.w3.org/1999/xlink" version="1.1"><rect x="0" y="0" width="900" height="600" fill="#ffffff"></rect><path d="M0 84L13.7 81.3C27.3 78.7 54.7 73.3 82 73.2C109.3 73 136.7 78 163.8 80.2C191 82.3 218 81.7 245.2 82.5C272.3 83.3 299.7 85.7 327 84.2C354.3 82.7 381.7 77.3 409 77C436.3 76.7 463.7 81.3 491 79.7C518.3 78 545.7 70 573 65.5C600.3 61 627.7 60 654.8 61.2C682 62.3 709 65.7 736.2 70.3C763.3 75 790.7 81 818 82C845.3 83 872.7 79 886.3 77L900 75L900 0L886.3 0C872.7 0 845.3 0 818 0C790.7 0 763.3 0 736.2 0C709 0 682 0 654.8 0C627.7 0 600.3 0 573 0C545.7 0 518.3 0 491 0C463.7 0 436.3 0 409 0C381.7 0 354.3 0 327 0C299.7 0 272.3 0 245.2 0C218 0 191 0 163.8 0C136.7 0 109.3 0 82 0C54.7 0 27.3 0 13.7 0L0 0Z" fill="#600414"></path><path d="M0 49L13.7 48.2C27.3 47.3 54.7 45.7 82 48.2C109.3 50.7 136.7 57.3 163.8 59C191 60.7 218 57.3 245.2 52.8C272.3 48.3 299.7 42.7 327 40.8C354.3 39 381.7 41 409 43.7C436.3 46.3 463.7 49.7 491 52C518.3 54.3 545.7 55.7 573 57.7C600.3 59.7 627.7 62.3 654.8 63.5C682 64.7 709 64.3 736.2 62.3C763.3 60.3 790.7 56.7 818 55.5C845.3 54.3 872.7 55.7 886.3 56.3L900 57L900 0L886.3 0C872.7 0 845.3 0 818 0C790.7 0 763.3 0 736.2 0C709 0 682 0 654.8 0C627.7 0 600.3 0 573 0C545.7 0 518.3 0 491 0C463.7 0 436.3 0 409 0C381.7 0 354.3 0 327 0C299.7 0 272.3 0 245.2 0C218 0 191 0 163.8 0C136.7 0 109.3 0 82 0C54.7 0 27.3 0 13.7 0L0 0Z" fill="#bb5a23"></path><path d="M0 39L13.7 39.8C27.3 40.7 54.7 42.3 82 38.8C109.3 35.3 136.7 26.7 163.8 22.8C191 19 218 20 245.2 23.8C272.3 27.7 299.7 34.3 327 37C354.3 39.7 381.7 38.3 409 37.7C436.3 37 463.7 37 491 35.8C518.3 34.7 545.7 32.3 573 29.7C600.3 27 627.7 24 654.8 23C682 22 709 23 736.2 24.5C763.3 26 790.7 28 818 31.3C845.3 34.7 872.7 39.3 886.3 41.7L900 44L900 0L886.3 0C872.7 0 845.3 0 818 0C790.7 0 763.3 0 736.2 0C709 0 682 0 654.8 0C627.7 0 600.3 0 573 0C545.7 0 518.3 0 491 0C463.7 0 436.3 0 409 0C381.7 0 354.3 0 327 0C299.7 0 272.3 0 245.2 0C218 0 191 0 163.8 0C136.7 0 109.3 0 82 0C54.7 0 27.3 0 13.7 0L0 0Z" fill="#ffbc2c"></path></svg>